<?xml version="1.0" encoding="UTF-8" standalone="no"?>
<!-- Created with Inkscape (http://www.inkscape.org/) -->

<svg
   xmlns:dc="http://purl.org/dc/elements/1.1/"
   xmlns:cc="http://creativecommons.org/ns#"
   xmlns:rdf="http://www.w3.org/1999/02/22-rdf-syntax-ns#"
   xmlns:svg="http://www.w3.org/2000/svg"
   xmlns="http://www.w3.org/2000/svg"
   xmlns:sodipodi="http://sodipodi.sourceforge.net/DTD/sodipodi-0.dtd"
   xmlns:inkscape="http://www.inkscape.org/namespaces/inkscape"
   version="1.1"
   width="765"
   height="990"
   id="svg2"
   xml:space="preserve"
   inkscape:version="0.48.2 r9819"
   sodipodi:docname="logotrisfera_2.svg"><sodipodi:namedview
     pagecolor="#ffffff"
     bordercolor="#666666"
     borderopacity="1"
     objecttolerance="10"
     gridtolerance="10"
     guidetolerance="10"
     inkscape:pageopacity="0"
     inkscape:pageshadow="2"
     inkscape:window-width="1280"
     inkscape:window-height="962"
     id="namedview177"
     showgrid="false"
     inkscape:zoom="0.67425131"
     inkscape:cx="325.92929"
     inkscape:cy="441.64458"
     inkscape:window-x="-8"
     inkscape:window-y="-8"
     inkscape:window-maximized="1"
     inkscape:current-layer="g10" /><metadata
     id="metadata8"><rdf:RDF><cc:Work
         rdf:about=""><dc:format>image/svg+xml</dc:format><dc:type
           rdf:resource="http://purl.org/dc/dcmitype/StillImage" /></cc:Work></rdf:RDF></metadata><defs
     id="defs6"><clipPath
       id="clipPath16"><path
         d="m 211.627,259.096 9.602,0 0,-32.096 6.816,0 0,32.096 9.046,0 0,6.814 -25.464,0 0,-6.814 z"
         inkscape:connector-curvature="0"
         id="path18" /></clipPath><linearGradient
       x1="0"
       y1="0"
       x2="1"
       y2="0"
       id="linearGradient24"
       gradientUnits="userSpaceOnUse"
       gradientTransform="matrix(403.50046,0,0,-403.50046,104.49023,246.45508)"
       spreadMethod="pad"><stop
         id="stop26"
         style="stop-color:#949595;stop-opacity:1"
         offset="0" /><stop
         id="stop28"
         style="stop-color:#211c1c;stop-opacity:1"
         offset="1" /></linearGradient><clipPath
       id="clipPath36"><path
         d="m 246.136,265.91 0,-6.814 20.446,0 c 1.195,0 2.229,-0.456 3.096,-1.365 l 0,0 c 0.868,-0.91 1.301,-1.961 1.301,-3.16 l 0,0 c 0,-1.278 -0.424,-2.365 -1.269,-3.25 l 0,0 c -0.846,-0.891 -1.911,-1.333 -3.19,-1.333 l 0,0 -8.18,0 c -3.759,0 -6.732,-0.96 -8.92,-2.88 l 0,0 c -2.191,-1.923 -3.284,-4.743 -3.284,-8.459 l 0,0 0,-11.649 6.815,0 0,10.967 25.773,-11.585 0,7.559 -21.064,9.23 7.867,0 c 2.232,0 4.12,0.332 5.669,0.993 l 0,0 c 1.55,0.661 2.819,1.527 3.811,2.6 l 0,0 c 0.991,1.076 1.704,2.282 2.137,3.626 l 0,0 c 0.433,1.344 0.652,2.693 0.652,4.058 l 0,0 c 0,1.568 -0.241,3.046 -0.714,4.431 l 0,0 c -0.476,1.384 -1.208,2.601 -2.199,3.655 l 0,0 c -0.992,1.051 -2.262,1.877 -3.811,2.476 l 0,0 c -1.547,0.601 -3.396,0.9 -5.545,0.9 l 0,0 -19.391,0 z"
         inkscape:connector-curvature="0"
         id="path38" /></clipPath><linearGradient
       x1="0"
       y1="0"
       x2="1"
       y2="0"
       id="linearGradient44"
       gradientUnits="userSpaceOnUse"
       gradientTransform="matrix(403.49951,0,0,-403.49951,104.49023,246.14648)"
       spreadMethod="pad"><stop
         id="stop46"
         style="stop-color:#949595;stop-opacity:1"
         offset="0" /><stop
         id="stop48"
         style="stop-color:#211c1c;stop-opacity:1"
         offset="1" /></linearGradient><clipPath
       id="clipPath56"><path
         d="m 316.021,265.91 c -2.192,0 -4.059,-0.299 -5.608,-0.9 l 0,0 c -1.548,-0.599 -2.82,-1.425 -3.809,-2.476 l 0,0 c -0.994,-1.054 -1.716,-2.271 -2.167,-3.655 l 0,0 c -0.455,-1.385 -0.683,-2.863 -0.683,-4.431 l 0,0 c 0,-1.321 0.217,-2.654 0.65,-3.997 l 0,0 c 0.434,-1.344 1.134,-2.55 2.105,-3.622 l 0,0 c 0.972,-1.076 2.232,-1.954 3.782,-2.633 l 0,0 c 1.549,-0.682 3.459,-1.025 5.73,-1.025 l 0,0 10.967,0 c 1.195,0 2.2,-0.462 3.005,-1.394 l 0,0 c 0.805,-0.928 1.206,-2.012 1.206,-3.25 l 0,0 c 0,-1.325 -0.401,-2.437 -1.206,-3.347 l 0,0 c -0.805,-0.911 -1.81,-1.362 -3.005,-1.362 l 0,0 -21.251,0 0,-6.818 19.948,0 c 3.881,0 6.908,0.961 9.079,2.882 l 0,0 c 2.165,1.921 3.253,4.76 3.253,8.518 l 0,0 0,0.249 c 0,3.716 -1.098,6.536 -3.286,8.459 l 0,0 c -2.189,1.92 -5.165,2.88 -8.919,2.88 l 0,0 -10.784,0 c -1.278,0 -2.344,0.442 -3.188,1.333 l 0,0 c -0.849,0.885 -1.272,1.972 -1.272,3.25 l 0,0 c 0,1.199 0.434,2.25 1.301,3.16 l 0,0 c 0.87,0.909 1.899,1.365 3.098,1.365 l 0,0 20.446,0 0,6.814 -19.392,0 z"
         inkscape:connector-curvature="0"
         id="path58" /></clipPath><linearGradient
       x1="0"
       y1="0"
       x2="1"
       y2="0"
       id="linearGradient64"
       gradientUnits="userSpaceOnUse"
       gradientTransform="matrix(403.49918,0,0,-403.49918,104.49023,246.45508)"
       spreadMethod="pad"><stop
         id="stop66"
         style="stop-color:#949595;stop-opacity:1"
         offset="0" /><stop
         id="stop68"
         style="stop-color:#211c1c;stop-opacity:1"
         offset="1" /></linearGradient><clipPath
       id="clipPath76"><path
         d="m 364.841,265.91 c -2.85,0 -5.349,-0.394 -7.497,-1.177 l 0,0 c -2.145,-0.784 -3.933,-1.911 -5.359,-3.377 l 0,0 c -1.422,-1.466 -2.499,-3.231 -3.222,-5.297 l 0,0 c -0.722,-2.066 -1.082,-4.398 -1.082,-7.002 l 0,0 0,-22.057 6.813,0 0,16.171 22.863,0 0,6.817 -22.863,0 c 0.127,2.973 1.106,5.234 2.944,6.783 l 0,0 c 1.837,1.548 4.247,2.325 7.219,2.325 l 0,0 12.7,0 0,6.814 -12.516,0 z"
         inkscape:connector-curvature="0"
         id="path78" /></clipPath><linearGradient
       x1="0"
       y1="0"
       x2="1"
       y2="0"
       id="linearGradient84"
       gradientUnits="userSpaceOnUse"
       gradientTransform="matrix(403.49863,0,0,-403.49863,104.49023,246.45508)"
       spreadMethod="pad"><stop
         id="stop86"
         style="stop-color:#949595;stop-opacity:1"
         offset="0" /><stop
         id="stop88"
         style="stop-color:#211c1c;stop-opacity:1"
         offset="1" /></linearGradient><clipPath
       id="clipPath96"><path
         d="m 398.608,265.91 c -2.105,0 -3.936,-0.279 -5.481,-0.838 l 0,0 c -1.554,-0.556 -2.82,-1.353 -3.813,-2.383 l 0,0 c -0.991,-1.033 -1.733,-2.253 -2.229,-3.655 l 0,0 c -0.498,-1.405 -0.744,-2.935 -0.744,-4.586 l 0,0 c 0,-1.365 0.318,-2.787 0.96,-4.275 l 0,0 c 0.64,-1.488 1.723,-2.683 3.25,-3.593 l 0,0 c -1.484,-0.91 -2.56,-2.095 -3.221,-3.565 l 0,0 c -0.66,-1.465 -0.989,-2.961 -0.989,-4.488 l 0,0 c 0,-1.448 0.216,-2.853 0.65,-4.215 l 0,0 c 0.434,-1.364 1.134,-2.593 2.106,-3.686 l 0,0 c 0.971,-1.095 2.231,-1.972 3.78,-2.633 l 0,0 c 1.55,-0.661 3.46,-0.993 5.731,-0.993 l 0,0 19.392,0 0,6.818 -20.384,0 c -1.323,0 -2.395,0.445 -3.223,1.332 l 0,0 c -0.826,0.885 -1.238,2.052 -1.238,3.499 l 0,0 c 0,1.199 0.434,2.25 1.3,3.16 l 0,0 c 0.867,0.907 1.9,1.362 3.098,1.362 l 0,0 20.447,0 0,6.817 -20.384,0 c -1.323,0 -2.395,0.442 -3.223,1.333 l 0,0 c -0.826,0.885 -1.238,1.972 -1.238,3.25 l 0,0 c 0,1.199 0.434,2.25 1.3,3.16 l 0,0 c 0.867,0.909 1.9,1.365 3.098,1.365 l 0,0 20.447,0 0,6.814 -19.392,0 z"
         inkscape:connector-curvature="0"
         id="path98" /></clipPath><linearGradient
       x1="0"
       y1="0"
       x2="1"
       y2="0"
       id="linearGradient104"
       gradientUnits="userSpaceOnUse"
       gradientTransform="matrix(403.49942,0,0,-403.49942,104.49023,246.45508)"
       spreadMethod="pad"><stop
         id="stop106"
         style="stop-color:#949595;stop-opacity:1"
         offset="0" /><stop
         id="stop108"
         style="stop-color:#211c1c;stop-opacity:1"
         offset="1" /></linearGradient><clipPath
       id="clipPath116"><path
         d="m 428.284,265.91 0,-6.814 20.443,0 c 1.199,0 2.232,-0.456 3.098,-1.365 l 0,0 c 0.868,-0.91 1.304,-1.961 1.304,-3.16 l 0,0 c 0,-1.278 -0.426,-2.365 -1.271,-3.25 l 0,0 c -0.848,-0.891 -1.911,-1.333 -3.192,-1.333 l 0,0 -8.18,0 c -3.756,0 -6.73,-0.96 -8.919,-2.88 l 0,0 c -2.188,-1.923 -3.283,-4.743 -3.283,-8.459 l 0,0 0,-11.649 6.815,0 0,10.967 25.772,-11.585 0,7.559 -21.064,9.23 7.869,0 c 2.229,0 4.121,0.332 5.669,0.993 l 0,0 c 1.547,0.661 2.817,1.527 3.81,2.6 l 0,0 c 0.989,1.076 1.706,2.282 2.138,3.626 l 0,0 c 0.433,1.344 0.65,2.693 0.65,4.058 l 0,0 c 0,1.568 -0.238,3.046 -0.714,4.431 l 0,0 c -0.474,1.384 -1.206,2.601 -2.2,3.655 l 0,0 c -0.989,1.051 -2.261,1.877 -3.81,2.476 l 0,0 c -1.55,0.601 -3.398,0.9 -5.543,0.9 l 0,0 -19.392,0 z"
         inkscape:connector-curvature="0"
         id="path118" /></clipPath><linearGradient
       x1="0"
       y1="0"
       x2="1"
       y2="0"
       id="linearGradient124"
       gradientUnits="userSpaceOnUse"
       gradientTransform="matrix(403.50092,0,0,-403.50092,104.49023,246.14648)"
       spreadMethod="pad"><stop
         id="stop126"
         style="stop-color:#949595;stop-opacity:1"
         offset="0" /><stop
         id="stop128"
         style="stop-color:#211c1c;stop-opacity:1"
         offset="1" /></linearGradient><clipPath
       id="clipPath136"><path
         d="m 483.639,264.672 c -1.343,-0.827 -2.303,-2.088 -2.881,-3.782 l 0,0 -12.083,-33.89 7.25,0 2.381,6.768 20.02,0 2.38,-6.768 7.251,0 -12.083,33.89 c -0.577,1.694 -1.549,2.955 -2.91,3.782 l 0,0 c -1.365,0.823 -2.911,1.238 -4.647,1.238 l 0,0 c -1.778,0 -3.338,-0.415 -4.678,-1.238 m 3.189,-6.692 c 0.249,0.701 0.744,1.054 1.489,1.054 l 0,0 c 0.332,0 0.631,-0.082 0.898,-0.249 l 0,0 c 0.267,-0.166 0.466,-0.433 0.588,-0.805 l 0,0 6.122,-17.395 -15.218,0 6.121,17.395 z"
         inkscape:connector-curvature="0"
         id="path138" /></clipPath><linearGradient
       x1="0"
       y1="0"
       x2="1"
       y2="0"
       id="linearGradient144"
       gradientUnits="userSpaceOnUse"
       gradientTransform="matrix(403.49918,0,0,-403.49918,104.49023,246.45508)"
       spreadMethod="pad"><stop
         id="stop146"
         style="stop-color:#949595;stop-opacity:1"
         offset="0" /><stop
         id="stop148"
         style="stop-color:#211c1c;stop-opacity:1"
         offset="1" /></linearGradient><clipPath
       id="clipPath156"><path
         d="m 287.324,227 6.816,0 0,38.911 -6.816,0 0,-38.911 z"
         inkscape:connector-curvature="0"
         id="path158" /></clipPath><linearGradient
       x1="0"
       y1="0"
       x2="1"
       y2="0"
       id="linearGradient164"
       gradientUnits="userSpaceOnUse"
       gradientTransform="matrix(403.50031,0,0,-403.50031,104.48975,246.45508)"
       spreadMethod="pad"><stop
         id="stop166"
         style="stop-color:#949595;stop-opacity:1"
         offset="0" /><stop
         id="stop168"
         style="stop-color:#211c1c;stop-opacity:1"
         offset="1" /></linearGradient><clipPath
       id="clipPath176"><path
         d="m 285.372,277.365 c 0,-2.965 2.402,-5.366 5.365,-5.366 l 0,0 c 2.962,0 5.364,2.401 5.364,5.366 l 0,0 c 0,2.96 -2.402,5.365 -5.364,5.365 l 0,0 c -2.963,0 -5.365,-2.405 -5.365,-5.365"
         inkscape:connector-curvature="0"
         id="path178" /></clipPath><linearGradient
       x1="0"
       y1="0"
       x2="1"
       y2="0"
       id="linearGradient184"
       gradientUnits="userSpaceOnUse"
       gradientTransform="matrix(619.94897,0,0,-619.94897,-44.325195,277.36426)"
       spreadMethod="pad"><stop
         id="stop186"
         style="stop-color:#949595;stop-opacity:1"
         offset="0" /><stop
         id="stop188"
         style="stop-color:#211c1c;stop-opacity:1"
         offset="1" /></linearGradient><clipPath
       id="clipPath196"><path
         d="m 317.403,274.499 c 0,-1.381 1.12,-2.5 2.5,-2.5 l 0,0 c 1.38,0 2.5,1.119 2.5,2.5 l 0,0 c 0,1.38 -1.12,2.5 -2.5,2.5 l 0,0 c -1.38,0 -2.5,-1.12 -2.5,-2.5"
         inkscape:connector-curvature="0"
         id="path198" /></clipPath><linearGradient
       x1="0"
       y1="0"
       x2="1"
       y2="0"
       id="linearGradient204"
       gradientUnits="userSpaceOnUse"
       gradientTransform="matrix(288.89951,0,0,-288.89951,163.7627,274.49902)"
       spreadMethod="pad"><stop
         id="stop206"
         style="stop-color:#949595;stop-opacity:1"
         offset="0" /><stop
         id="stop208"
         style="stop-color:#211c1c;stop-opacity:1"
         offset="1" /></linearGradient><clipPath
       id="clipPath216"><path
         d="m 259.159,274.5 c 0,-1.381 1.119,-2.501 2.499,-2.501 l 0,0 c 1.38,0 2.5,1.12 2.5,2.501 l 0,0 c 0,1.381 -1.12,2.5 -2.5,2.5 l 0,0 c -1.38,0 -2.499,-1.119 -2.499,-2.5"
         inkscape:connector-curvature="0"
         id="path218" /></clipPath><linearGradient
       x1="0"
       y1="0"
       x2="1"
       y2="0"
       id="linearGradient224"
       gradientUnits="userSpaceOnUse"
       gradientTransform="matrix(-288.89951,0,0,288.89951,417.79883,274.5)"
       spreadMethod="pad"><stop
         id="stop226"
         style="stop-color:#949595;stop-opacity:1"
         offset="0" /><stop
         id="stop228"
         style="stop-color:#211c1c;stop-opacity:1"
         offset="1" /></linearGradient><clipPath
       id="clipPath236"><path
         d="m 104.98,235.06 c 10.085,-6.399 25.582,-10.551 43.028,-10.704 l 0,0 c 17.449,0.153 32.946,4.305 43.032,10.704 l 0,0 -43.032,18.201 -43.028,-18.201 z"
         inkscape:connector-curvature="0"
         id="path238" /></clipPath><linearGradient
       x1="0"
       y1="0"
       x2="1"
       y2="0"
       id="linearGradient244"
       gradientUnits="userSpaceOnUse"
       gradientTransform="matrix(403.50003,0,0,-403.50003,104.49023,238.80859)"
       spreadMethod="pad"><stop
         id="stop246"
         style="stop-color:#949595;stop-opacity:1"
         offset="0" /><stop
         id="stop248"
         style="stop-color:#211c1c;stop-opacity:1"
         offset="1" /></linearGradient><clipPath
       id="clipPath256"><path
         d="m 128.295,277.632 c -12.379,-12.443 -20.5,-26.34 -23.141,-37.996 l 0,0 40.985,16.419 0,35.585 c -6.016,-3.717 -12.083,-8.418 -17.844,-14.008"
         inkscape:connector-curvature="0"
         id="path258" /></clipPath><linearGradient
       x1="0"
       y1="0"
       x2="1"
       y2="0"
       id="linearGradient264"
       gradientUnits="userSpaceOnUse"
       gradientTransform="matrix(403.50006,0,0,-403.50006,104.49023,265.6377)"
       spreadMethod="pad"><stop
         id="stop266"
         style="stop-color:#949595;stop-opacity:1"
         offset="0" /><stop
         id="stop268"
         style="stop-color:#211c1c;stop-opacity:1"
         offset="1" /></linearGradient><clipPath
       id="clipPath276"><path
         d="m 149.835,262.711 0,-6.638 41.03,-16.437 c -2.638,11.656 -10.76,25.553 -23.14,37.996 l 0,0 c -5.776,5.604 -11.859,10.313 -17.89,14.037 l 0,0 0,-28.958 z"
         inkscape:connector-curvature="0"
         id="path278" /></clipPath><linearGradient
       x1="0"
       y1="0"
       x2="1"
       y2="0"
       id="linearGradient284"
       gradientUnits="userSpaceOnUse"
       gradientTransform="matrix(403.50003,0,0,-403.50003,104.49023,265.65234)"
       spreadMethod="pad"><stop
         id="stop286"
         style="stop-color:#949595;stop-opacity:1"
         offset="0" /><stop
         id="stop288"
         style="stop-color:#211c1c;stop-opacity:1"
         offset="1" /></linearGradient><clipPath
       id="clipPath296"><path
         d="M 0,792 612,792 612,0 0,0 0,792 z"
         inkscape:connector-curvature="0"
         id="path298" /></clipPath></defs><g
     transform="matrix(1.25,0,0,-1.25,0,990)"
     id="g10"><g
       id="g12"
       transform="translate(3.5595036,220.68922)"><g
         clip-path="url(#clipPath16)"
         id="g14"><g
           id="g20"><g
             id="g22"><path
               d="m 211.627,259.096 9.602,0 0,-32.096 6.816,0 0,32.096 9.046,0 0,6.814 -25.464,0 0,-6.814 z"
               inkscape:connector-curvature="0"
               id="path30"
               style="fill:url(#linearGradient24);stroke:none" /></g></g></g></g><g
       id="g32"
       transform="translate(3.5595036,220.68922)"><g
         clip-path="url(#clipPath36)"
         id="g34"><g
           id="g40"><g
             id="g42"><path
               d="m 246.136,265.91 0,-6.814 20.446,0 c 1.195,0 2.229,-0.456 3.096,-1.365 l 0,0 c 0.868,-0.91 1.301,-1.961 1.301,-3.16 l 0,0 c 0,-1.278 -0.424,-2.365 -1.269,-3.25 l 0,0 c -0.846,-0.891 -1.911,-1.333 -3.19,-1.333 l 0,0 -8.18,0 c -3.759,0 -6.732,-0.96 -8.92,-2.88 l 0,0 c -2.191,-1.923 -3.284,-4.743 -3.284,-8.459 l 0,0 0,-11.649 6.815,0 0,10.967 25.773,-11.585 0,7.559 -21.064,9.23 7.867,0 c 2.232,0 4.12,0.332 5.669,0.993 l 0,0 c 1.55,0.661 2.819,1.527 3.811,2.6 l 0,0 c 0.991,1.076 1.704,2.282 2.137,3.626 l 0,0 c 0.433,1.344 0.652,2.693 0.652,4.058 l 0,0 c 0,1.568 -0.241,3.046 -0.714,4.431 l 0,0 c -0.476,1.384 -1.208,2.601 -2.199,3.655 l 0,0 c -0.992,1.051 -2.262,1.877 -3.811,2.476 l 0,0 c -1.547,0.601 -3.396,0.9 -5.545,0.9 l 0,0 -19.391,0 z"
               inkscape:connector-curvature="0"
               id="path50"
               style="fill:url(#linearGradient44);stroke:none" /></g></g></g></g><g
       id="g52"
       transform="translate(3.5595036,220.68922)"><g
         clip-path="url(#clipPath56)"
         id="g54"><g
           id="g60"><g
             id="g62"><path
               d="m 316.021,265.91 c -2.192,0 -4.059,-0.299 -5.608,-0.9 l 0,0 c -1.548,-0.599 -2.82,-1.425 -3.809,-2.476 l 0,0 c -0.994,-1.054 -1.716,-2.271 -2.167,-3.655 l 0,0 c -0.455,-1.385 -0.683,-2.863 -0.683,-4.431 l 0,0 c 0,-1.321 0.217,-2.654 0.65,-3.997 l 0,0 c 0.434,-1.344 1.134,-2.55 2.105,-3.622 l 0,0 c 0.972,-1.076 2.232,-1.954 3.782,-2.633 l 0,0 c 1.549,-0.682 3.459,-1.025 5.73,-1.025 l 0,0 10.967,0 c 1.195,0 2.2,-0.462 3.005,-1.394 l 0,0 c 0.805,-0.928 1.206,-2.012 1.206,-3.25 l 0,0 c 0,-1.325 -0.401,-2.437 -1.206,-3.347 l 0,0 c -0.805,-0.911 -1.81,-1.362 -3.005,-1.362 l 0,0 -21.251,0 0,-6.818 19.948,0 c 3.881,0 6.908,0.961 9.079,2.882 l 0,0 c 2.165,1.921 3.253,4.76 3.253,8.518 l 0,0 0,0.249 c 0,3.716 -1.098,6.536 -3.286,8.459 l 0,0 c -2.189,1.92 -5.165,2.88 -8.919,2.88 l 0,0 -10.784,0 c -1.278,0 -2.344,0.442 -3.188,1.333 l 0,0 c -0.849,0.885 -1.272,1.972 -1.272,3.25 l 0,0 c 0,1.199 0.434,2.25 1.301,3.16 l 0,0 c 0.87,0.909 1.899,1.365 3.098,1.365 l 0,0 20.446,0 0,6.814 -19.392,0 z"
               inkscape:connector-curvature="0"
               id="path70"
               style="fill:url(#linearGradient64);stroke:none" /></g></g></g></g><g
       id="g72"
       transform="translate(3.5595036,220.68922)"><g
         clip-path="url(#clipPath76)"
         id="g74"><g
           id="g80"><g
             id="g82"><path
               d="m 364.841,265.91 c -2.85,0 -5.349,-0.394 -7.497,-1.177 l 0,0 c -2.145,-0.784 -3.933,-1.911 -5.359,-3.377 l 0,0 c -1.422,-1.466 -2.499,-3.231 -3.222,-5.297 l 0,0 c -0.722,-2.066 -1.082,-4.398 -1.082,-7.002 l 0,0 0,-22.057 6.813,0 0,16.171 22.863,0 0,6.817 -22.863,0 c 0.127,2.973 1.106,5.234 2.944,6.783 l 0,0 c 1.837,1.548 4.247,2.325 7.219,2.325 l 0,0 12.7,0 0,6.814 -12.516,0 z"
               inkscape:connector-curvature="0"
               id="path90"
               style="fill:url(#linearGradient84);stroke:none" /></g></g></g></g><g
       id="g92"
       transform="translate(3.5595036,220.68922)"><g
         clip-path="url(#clipPath96)"
         id="g94"><g
           id="g100"><g
             id="g102"><path
               d="m 398.608,265.91 c -2.105,0 -3.936,-0.279 -5.481,-0.838 l 0,0 c -1.554,-0.556 -2.82,-1.353 -3.813,-2.383 l 0,0 c -0.991,-1.033 -1.733,-2.253 -2.229,-3.655 l 0,0 c -0.498,-1.405 -0.744,-2.935 -0.744,-4.586 l 0,0 c 0,-1.365 0.318,-2.787 0.96,-4.275 l 0,0 c 0.64,-1.488 1.723,-2.683 3.25,-3.593 l 0,0 c -1.484,-0.91 -2.56,-2.095 -3.221,-3.565 l 0,0 c -0.66,-1.465 -0.989,-2.961 -0.989,-4.488 l 0,0 c 0,-1.448 0.216,-2.853 0.65,-4.215 l 0,0 c 0.434,-1.364 1.134,-2.593 2.106,-3.686 l 0,0 c 0.971,-1.095 2.231,-1.972 3.78,-2.633 l 0,0 c 1.55,-0.661 3.46,-0.993 5.731,-0.993 l 0,0 19.392,0 0,6.818 -20.384,0 c -1.323,0 -2.395,0.445 -3.223,1.332 l 0,0 c -0.826,0.885 -1.238,2.052 -1.238,3.499 l 0,0 c 0,1.199 0.434,2.25 1.3,3.16 l 0,0 c 0.867,0.907 1.9,1.362 3.098,1.362 l 0,0 20.447,0 0,6.817 -20.384,0 c -1.323,0 -2.395,0.442 -3.223,1.333 l 0,0 c -0.826,0.885 -1.238,1.972 -1.238,3.25 l 0,0 c 0,1.199 0.434,2.25 1.3,3.16 l 0,0 c 0.867,0.909 1.9,1.365 3.098,1.365 l 0,0 20.447,0 0,6.814 -19.392,0 z"
               inkscape:connector-curvature="0"
               id="path110"
               style="fill:url(#linearGradient104);stroke:none" /></g></g></g></g><g
       id="g112"
       transform="translate(3.5595036,220.68922)"><g
         clip-path="url(#clipPath116)"
         id="g114"><g
           id="g120"><g
             id="g122"><path
               d="m 428.284,265.91 0,-6.814 20.443,0 c 1.199,0 2.232,-0.456 3.098,-1.365 l 0,0 c 0.868,-0.91 1.304,-1.961 1.304,-3.16 l 0,0 c 0,-1.278 -0.426,-2.365 -1.271,-3.25 l 0,0 c -0.848,-0.891 -1.911,-1.333 -3.192,-1.333 l 0,0 -8.18,0 c -3.756,0 -6.73,-0.96 -8.919,-2.88 l 0,0 c -2.188,-1.923 -3.283,-4.743 -3.283,-8.459 l 0,0 0,-11.649 6.815,0 0,10.967 25.772,-11.585 0,7.559 -21.064,9.23 7.869,0 c 2.229,0 4.121,0.332 5.669,0.993 l 0,0 c 1.547,0.661 2.817,1.527 3.81,2.6 l 0,0 c 0.989,1.076 1.706,2.282 2.138,3.626 l 0,0 c 0.433,1.344 0.65,2.693 0.65,4.058 l 0,0 c 0,1.568 -0.238,3.046 -0.714,4.431 l 0,0 c -0.474,1.384 -1.206,2.601 -2.2,3.655 l 0,0 c -0.989,1.051 -2.261,1.877 -3.81,2.476 l 0,0 c -1.55,0.601 -3.398,0.9 -5.543,0.9 l 0,0 -19.392,0 z"
               inkscape:connector-curvature="0"
               id="path130"
               style="fill:url(#linearGradient124);stroke:none" /></g></g></g></g><g
       id="g132"
       transform="translate(3.5595036,220.68922)"><g
         clip-path="url(#clipPath136)"
         id="g134"><g
           id="g140"><g
             id="g142"><path
               d="m 483.639,264.672 c -1.343,-0.827 -2.303,-2.088 -2.881,-3.782 l 0,0 -12.083,-33.89 7.25,0 2.381,6.768 20.02,0 2.38,-6.768 7.251,0 -12.083,33.89 c -0.577,1.694 -1.549,2.955 -2.91,3.782 l 0,0 c -1.365,0.823 -2.911,1.238 -4.647,1.238 l 0,0 c -1.778,0 -3.338,-0.415 -4.678,-1.238 m 3.189,-6.692 c 0.249,0.701 0.744,1.054 1.489,1.054 l 0,0 c 0.332,0 0.631,-0.082 0.898,-0.249 l 0,0 c 0.267,-0.166 0.466,-0.433 0.588,-0.805 l 0,0 6.122,-17.395 -15.218,0 6.121,17.395 z"
               inkscape:connector-curvature="0"
               id="path150"
               style="fill:url(#linearGradient144);stroke:none" /></g></g></g></g><g
       id="g152"
       transform="translate(3.5595036,220.68922)"><g
         clip-path="url(#clipPath156)"
         id="g154"><g
           id="g160"><g
             id="g162"><path
               d="m 287.324,227 6.816,0 0,38.911 -6.816,0 0,-38.911 z"
               inkscape:connector-curvature="0"
               id="path170"
               style="fill:url(#linearGradient164);stroke:none" /></g></g></g></g><g
       id="g172"
       transform="translate(3.5595036,220.68922)"><g
         clip-path="url(#clipPath176)"
         id="g174"><g
           id="g180"><g
             id="g182"><path
               d="m 285.372,277.365 c 0,-2.965 2.402,-5.366 5.365,-5.366 l 0,0 c 2.962,0 5.364,2.401 5.364,5.366 l 0,0 c 0,2.96 -2.402,5.365 -5.364,5.365 l 0,0 c -2.963,0 -5.365,-2.405 -5.365,-5.365"
               inkscape:connector-curvature="0"
               id="path190"
               style="fill:url(#linearGradient184);stroke:none" /></g></g></g></g><g
       id="g192"
       transform="translate(3.5595036,220.68922)"><g
         clip-path="url(#clipPath196)"
         id="g194"><g
           id="g200"><g
             id="g202"><path
               d="m 317.403,274.499 c 0,-1.381 1.12,-2.5 2.5,-2.5 l 0,0 c 1.38,0 2.5,1.119 2.5,2.5 l 0,0 c 0,1.38 -1.12,2.5 -2.5,2.5 l 0,0 c -1.38,0 -2.5,-1.12 -2.5,-2.5"
               inkscape:connector-curvature="0"
               id="path210"
               style="fill:url(#linearGradient204);stroke:none" /></g></g></g></g><g
       id="g212"
       transform="translate(3.5595036,220.68922)"><g
         clip-path="url(#clipPath216)"
         id="g214"><g
           id="g220"><g
             id="g222"><path
               d="m 259.159,274.5 c 0,-1.381 1.119,-2.501 2.499,-2.501 l 0,0 c 1.38,0 2.5,1.12 2.5,2.501 l 0,0 c 0,1.381 -1.12,2.5 -2.5,2.5 l 0,0 c -1.38,0 -2.499,-1.119 -2.499,-2.5"
               inkscape:connector-curvature="0"
               id="path230"
               style="fill:url(#linearGradient224);stroke:none" /></g></g></g></g><g
       id="g232"
       transform="translate(3.5595036,220.68922)"><g
         clip-path="url(#clipPath236)"
         id="g234"><g
           id="g240"><g
             id="g242"><path
               d="m 104.98,235.06 c 10.085,-6.399 25.582,-10.551 43.028,-10.704 l 0,0 c 17.449,0.153 32.946,4.305 43.032,10.704 l 0,0 -43.032,18.201 -43.028,-18.201 z"
               inkscape:connector-curvature="0"
               id="path250"
               style="fill:url(#linearGradient244);stroke:none" /></g></g></g></g><g
       id="g252"
       transform="translate(3.5595036,220.68922)"><g
         clip-path="url(#clipPath256)"
         id="g254"><g
           id="g260"><g
             id="g262"><path
               d="m 128.295,277.632 c -12.379,-12.443 -20.5,-26.34 -23.141,-37.996 l 0,0 40.985,16.419 0,35.585 c -6.016,-3.717 -12.083,-8.418 -17.844,-14.008"
               inkscape:connector-curvature="0"
               id="path270"
               style="fill:url(#linearGradient264);stroke:none" /></g></g></g></g><g
       id="g272"
       transform="translate(3.5595036,220.68922)"><g
         clip-path="url(#clipPath276)"
         id="g274"><g
           id="g280"><g
             id="g282"><path
               d="m 149.835,262.711 0,-6.638 41.03,-16.437 c -2.638,11.656 -10.76,25.553 -23.14,37.996 l 0,0 c -5.776,5.604 -11.859,10.313 -17.89,14.037 l 0,0 0,-28.958 z"
               inkscape:connector-curvature="0"
               id="path290"
               style="fill:url(#linearGradient284);stroke:none" /></g></g></g></g><g
       id="g292"
       transform="translate(3.5595036,220.68922)"><g
         clip-path="url(#clipPath296)"
         id="g294"><g
           transform="translate(211.627,156.0957)"
           id="g300"><path
             d="m 0,0 9.602,0 0,-32.096 6.816,0 0,32.096 9.046,0 0,6.814 L 0,6.814 0,0 z"
             inkscape:connector-curvature="0"
             id="path302"
             style="fill:#4f4c4d;fill-opacity:1;fill-rule:nonzero;stroke:none" /></g><g
           transform="translate(265.5269,140.1709)"
           id="g304"><path
             d="m 0,0 c 2.232,0 4.121,0.332 5.669,0.993 1.55,0.661 2.819,1.528 3.81,2.6 0.992,1.076 1.705,2.282 2.138,3.626 0.433,1.344 0.652,2.693 0.652,4.058 0,1.568 -0.24,3.045 -0.713,4.431 -0.477,1.384 -1.208,2.601 -2.2,3.655 C 8.364,20.414 7.094,21.24 5.545,21.84 3.998,22.439 2.149,22.739 0,22.739 l -19.392,0 0,-6.814 20.447,0 c 1.195,0 2.23,-0.455 3.096,-1.364 C 5.02,13.65 5.453,12.6 5.453,11.4 5.453,10.122 5.029,9.035 4.184,8.15 3.337,7.259 2.271,6.817 0.993,6.817 l -8.179,0 c -3.759,0 -6.733,-0.96 -8.921,-2.88 -2.19,-1.922 -3.285,-4.743 -3.285,-8.458 l 0,-11.65 6.816,0 0,10.967 25.773,-11.584 0,7.558 L -7.867,0 0,0 z"
             inkscape:connector-curvature="0"
             id="path306"
             style="fill:#4f4c4d;fill-opacity:1;fill-rule:nonzero;stroke:none" /></g><g
           transform="translate(334.7305,144.1074)"
           id="g308"><path
             d="m 0,0 c -2.188,1.921 -5.164,2.881 -8.919,2.881 l -10.783,0 c -1.278,0 -2.344,0.441 -3.189,1.333 -0.848,0.885 -1.271,1.972 -1.271,3.25 0,1.199 0.433,2.25 1.301,3.16 0.87,0.909 1.898,1.364 3.097,1.364 l 20.447,0 0,6.815 -19.392,0 c -2.192,0 -4.059,-0.3 -5.608,-0.9 -1.549,-0.599 -2.821,-1.425 -3.81,-2.476 -0.993,-1.055 -1.715,-2.272 -2.166,-3.656 -0.456,-1.385 -0.683,-2.863 -0.683,-4.43 0,-1.321 0.217,-2.654 0.65,-3.997 0.433,-1.344 1.134,-2.55 2.105,-3.622 0.972,-1.076 2.232,-1.954 3.782,-2.633 1.548,-0.683 3.459,-1.026 5.73,-1.026 l 10.967,0 c 1.195,0 2.199,-0.461 3.005,-1.393 0.804,-0.929 1.206,-2.012 1.206,-3.25 0,-1.325 -0.402,-2.438 -1.206,-3.348 -0.806,-0.91 -1.81,-1.361 -3.005,-1.361 l -21.251,0 0,-6.818 19.947,0 c 3.882,0 6.908,0.961 9.079,2.881 2.166,1.921 3.253,4.76 3.253,8.519 l 0,0.249 C 3.286,-4.742 2.188,-1.922 0,0"
             inkscape:connector-curvature="0"
             id="path310"
             style="fill:#4f4c4d;fill-opacity:1;fill-rule:nonzero;stroke:none" /></g><g
           transform="translate(357.3438,161.7334)"
           id="g312"><path
             d="m 0,0 c -2.145,-0.784 -3.933,-1.911 -5.359,-3.377 -1.422,-1.466 -2.498,-3.231 -3.221,-5.298 -0.723,-2.065 -1.083,-4.397 -1.083,-7.002 l 0,-22.056 6.813,0 0,16.17 22.863,0 0,6.818 -22.863,0 c 0.127,2.973 1.106,5.233 2.944,6.782 1.838,1.549 4.247,2.325 7.219,2.325 l 12.7,0 0,6.815 -12.516,0 C 4.647,1.177 2.148,0.783 0,0"
             inkscape:connector-curvature="0"
             id="path314"
             style="fill:#4f4c4d;fill-opacity:1;fill-rule:nonzero;stroke:none" /></g><g
           transform="translate(393.127,162.0723)"
           id="g316"><path
             d="m 0,0 c -1.554,-0.556 -2.82,-1.354 -3.813,-2.383 -0.991,-1.033 -1.734,-2.254 -2.229,-3.655 -0.498,-1.404 -0.744,-2.936 -0.744,-4.586 0,-1.365 0.318,-2.787 0.961,-4.275 0.639,-1.488 1.722,-2.683 3.25,-3.593 -1.485,-0.91 -2.561,-2.095 -3.222,-3.565 -0.66,-1.465 -0.989,-2.961 -0.989,-4.488 0,-1.448 0.217,-2.853 0.65,-4.215 0.434,-1.364 1.134,-2.593 2.106,-3.686 0.971,-1.095 2.231,-1.972 3.78,-2.633 1.55,-0.661 3.46,-0.993 5.731,-0.993 l 19.392,0 0,6.818 -20.385,0 c -1.322,0 -2.394,0.444 -3.221,1.332 -0.827,0.885 -1.239,2.052 -1.239,3.499 0,1.199 0.434,2.25 1.3,3.16 0.867,0.907 1.9,1.362 3.099,1.362 l 20.446,0 0,6.817 -20.385,0 c -1.322,0 -2.394,0.441 -3.221,1.333 -0.827,0.885 -1.239,1.972 -1.239,3.25 0,1.199 0.434,2.25 1.3,3.16 0.867,0.909 1.9,1.364 3.099,1.364 l 20.446,0 0,6.815 -19.392,0 C 3.376,0.838 1.545,0.56 0,0"
             inkscape:connector-curvature="0"
             id="path318"
             style="fill:#4f4c4d;fill-opacity:1;fill-rule:nonzero;stroke:none" /></g><g
           transform="translate(447.6758,140.1709)"
           id="g320"><path
             d="m 0,0 c 2.229,0 4.121,0.332 5.67,0.993 1.546,0.661 2.816,1.528 3.809,2.6 0.99,1.076 1.706,2.282 2.138,3.626 0.434,1.344 0.651,2.693 0.651,4.058 0,1.568 -0.239,3.045 -0.715,4.431 -0.474,1.384 -1.206,2.601 -2.199,3.655 C 8.364,20.414 7.093,21.24 5.544,21.84 3.994,22.439 2.146,22.739 0,22.739 l -19.392,0 0,-6.814 20.444,0 c 1.198,0 2.231,-0.455 3.097,-1.364 C 5.017,13.65 5.453,12.6 5.453,11.4 5.453,10.122 5.027,9.035 4.183,8.15 3.334,7.259 2.271,6.817 0.99,6.817 l -8.179,0 c -3.756,0 -6.731,-0.96 -8.919,-2.88 -2.189,-1.922 -3.284,-4.743 -3.284,-8.458 l 0,-11.65 6.815,0 0,10.967 25.772,-11.584 0,7.558 L -7.868,0 0,0 z"
             inkscape:connector-curvature="0"
             id="path322"
             style="fill:#4f4c4d;fill-opacity:1;fill-rule:nonzero;stroke:none" /></g><g
           transform="translate(480.707,137.585)"
           id="g324"><path
             d="m 0,0 6.121,17.396 c 0.249,0.7 0.744,1.053 1.488,1.053 0.332,0 0.632,-0.083 0.899,-0.249 0.267,-0.166 0.466,-0.432 0.589,-0.804 L 15.218,0 0,0 z m 19.999,-13.585 7.251,0 -12.083,33.891 c -0.577,1.693 -1.549,2.954 -2.91,3.781 -1.365,0.823 -2.911,1.238 -4.648,1.238 -1.777,0 -3.337,-0.415 -4.676,-1.238 C 1.589,23.26 0.629,21.999 0.051,20.306 l -12.083,-33.891 7.251,0 2.38,6.768 20.02,0 2.38,-6.768 z"
             inkscape:connector-curvature="0"
             id="path326"
             style="fill:#4f4c4d;fill-opacity:1;fill-rule:nonzero;stroke:none" /></g><path
           d="m 287.324,124 6.816,0 0,38.91 -6.816,0 0,-38.91 z"
           inkscape:connector-curvature="0"
           id="path328"
           style="fill:#4f4c4d;fill-opacity:1;fill-rule:nonzero;stroke:none" /><g
           transform="translate(290.7368,168.999)"
           id="g330"><path
             d="M 0,0 C 2.962,0 5.364,2.401 5.364,5.365 5.364,8.326 2.962,10.73 0,10.73 -2.963,10.73 -5.365,8.326 -5.365,5.365 -5.365,2.401 -2.963,0 0,0"
             inkscape:connector-curvature="0"
             id="path332"
             style="fill:#4f4c4d;fill-opacity:1;fill-rule:nonzero;stroke:none" /></g><g
           transform="translate(319.9033,168.999)"
           id="g334"><path
             d="M 0,0 C 1.38,0 2.5,1.119 2.5,2.5 2.5,3.88 1.38,5 0,5 -1.38,5 -2.5,3.88 -2.5,2.5 -2.5,1.119 -1.38,0 0,0"
             inkscape:connector-curvature="0"
             id="path336"
             style="fill:#4f4c4d;fill-opacity:1;fill-rule:nonzero;stroke:none" /></g><g
           transform="translate(261.6577,174)"
           id="g338"><path
             d="m 0,0 c -1.38,0 -2.5,-1.119 -2.5,-2.5 0,-1.381 1.12,-2.501 2.5,-2.501 1.381,0 2.5,1.12 2.5,2.501 C 2.5,-1.119 1.381,0 0,0"
             inkscape:connector-curvature="0"
             id="path340"
             style="fill:#4f4c4d;fill-opacity:1;fill-rule:nonzero;stroke:none" /></g><g
           transform="translate(148.0078,150.2607)"
           id="g342"><path
             d="M 0,0 -43.028,-18.2 C -32.942,-24.6 -17.445,-28.752 0,-28.904 17.449,-28.752 32.946,-24.6 43.032,-18.2 L 0,0 z"
             inkscape:connector-curvature="0"
             id="path344"
             style="fill:#4f4c4d;fill-opacity:1;fill-rule:nonzero;stroke:none" /></g><g
           transform="translate(128.2949,174.6318)"
           id="g346"><path
             d="m 0,0 c -12.379,-12.443 -20.5,-26.34 -23.141,-37.996 l 40.985,16.42 0,35.584 C 11.828,10.292 5.761,5.59 0,0"
             inkscape:connector-curvature="0"
             id="path348"
             style="fill:#4f4c4d;fill-opacity:1;fill-rule:nonzero;stroke:none" /></g><g
           transform="translate(149.835,153.0732)"
           id="g350"><path
             d="M 0,0 41.03,-16.438 C 38.392,-4.781 30.271,9.115 17.89,21.559 12.114,27.163 6.031,31.872 0,35.596 L 0,6.638 0,0 z"
             inkscape:connector-curvature="0"
             id="path352"
             style="fill:#4f4c4d;fill-opacity:1;fill-rule:nonzero;stroke:none" /></g></g></g></g></svg>