<?xml version="1.0" encoding="UTF-8" standalone="no"?>
<!-- Created with Inkscape (http://www.inkscape.org/) -->

<svg
   xmlns:dc="http://purl.org/dc/elements/1.1/"
   xmlns:cc="http://creativecommons.org/ns#"
   xmlns:rdf="http://www.w3.org/1999/02/22-rdf-syntax-ns#"
   xmlns:svg="http://www.w3.org/2000/svg"
   xmlns="http://www.w3.org/2000/svg"
   xmlns:xlink="http://www.w3.org/1999/xlink"
   xmlns:sodipodi="http://sodipodi.sourceforge.net/DTD/sodipodi-0.dtd"
   xmlns:inkscape="http://www.inkscape.org/namespaces/inkscape"
   width="210mm"
   height="297mm"
   id="svg2"
   version="1.1"
   inkscape:version="0.48.2 r9819"
   sodipodi:docname="mascotas.svg">
  <defs
     id="defs4">
    <linearGradient
       inkscape:collect="always"
       id="linearGradient4278">
      <stop
         style="stop-color:#6c5353;stop-opacity:1"
         offset="0"
         id="stop4280" />
      <stop
         style="stop-color:#ffffff;stop-opacity:0;"
         offset="1"
         id="stop4282" />
    </linearGradient>
    <linearGradient
       inkscape:collect="always"
       id="linearGradient4240">
      <stop
         style="stop-color:#6c5353;stop-opacity:1;"
         offset="0"
         id="stop4242" />
      <stop
         style="stop-color:#6c5353;stop-opacity:0;"
         offset="1"
         id="stop4244" />
    </linearGradient>
    <linearGradient
       inkscape:collect="always"
       xlink:href="#linearGradient4240"
       id="linearGradient4246"
       x1="166"
       y1="368.36218"
       x2="222"
       y2="330.36218"
       gradientUnits="userSpaceOnUse"
       gradientTransform="matrix(0.27148881,0,0,0.27148881,239.5691,306.67634)" />
    <linearGradient
       inkscape:collect="always"
       xlink:href="#linearGradient4278"
       id="linearGradient4284"
       x1="288"
       y1="432.36218"
       x2="326"
       y2="440.36218"
       gradientUnits="userSpaceOnUse"
       gradientTransform="matrix(0.27148881,0,0,0.27148881,239.5691,306.67634)" />
  </defs>
  <sodipodi:namedview
     id="base"
     pagecolor="#ffffff"
     bordercolor="#666666"
     borderopacity="1.0"
     inkscape:pageopacity="0.0"
     inkscape:pageshadow="2"
     inkscape:zoom="2"
     inkscape:cx="308.70455"
     inkscape:cy="632.20824"
     inkscape:document-units="px"
     inkscape:current-layer="layer4"
     showgrid="false"
     inkscape:window-width="1152"
     inkscape:window-height="672"
     inkscape:window-x="0"
     inkscape:window-y="0"
     inkscape:window-maximized="1">
    <inkscape:grid
       type="xygrid"
       id="grid2985" />
  </sodipodi:namedview>
  <metadata
     id="metadata7">
    <rdf:RDF>
      <cc:Work
         rdf:about="">
        <dc:format>image/svg+xml</dc:format>
        <dc:type
           rdf:resource="http://purl.org/dc/dcmitype/StillImage" />
        <dc:title></dc:title>
      </cc:Work>
    </rdf:RDF>
  </metadata>
  <g
     inkscape:groupmode="layer"
     id="layer4"
     inkscape:label="tamaño"
     style="display:none">
    <rect
       style="fill:#000000;fill-opacity:1;stroke:#000000;stroke-width:0.77936614;stroke-miterlimit:4;stroke-opacity:1;stroke-dasharray:none"
       id="rect4303"
       width="75.660088"
       height="83.34304"
       x="291.01749"
       y="366.22208"
       inkscape:export-filename="/Users/kinbladepc/Desktop/mirep/PaginaTrisfera/img/cat-reading.png"
       inkscape:export-xdpi="90"
       inkscape:export-ydpi="90" />
  </g>
  <g
     inkscape:groupmode="layer"
     id="layer2"
     inkscape:label="Cuerpo 1"
     sodipodi:insensitive="true"
     style="display:none">
    <path
       sodipodi:type="arc"
       style="fill:#ffeeaa;fill-opacity:1;stroke:none"
       id="path3003"
       sodipodi:cx="240.41631"
       sodipodi:cy="486.67676"
       sodipodi:rx="111.11678"
       sodipodi:ry="86.873116"
       d="m 351.53309,486.67676 a 111.11678,86.873116 0 1 1 -222.23357,0 111.11678,86.873116 0 1 1 222.23357,0 z"
       transform="matrix(0.70873442,0,0,0.8422833,158.85304,139.44742)" />
    <path
       style="fill:#ffeeaa;fill-opacity:1;stroke:none"
       d="m 255.56858,520.26433 c 29.74284,-45.85007 45.53278,-52.92819 52.42524,-126.52161 l 51.35534,0 c -10.78755,68.94968 14.7231,77.51049 40.92378,121.72339 z"
       id="path3773"
       inkscape:connector-curvature="0"
       sodipodi:nodetypes="ccccc" />
  </g>
  <g
     inkscape:label="Cabeza 1"
     inkscape:groupmode="layer"
     id="layer1"
     style="display:none"
     sodipodi:insensitive="true">
    <path
       style="fill:#ffeeaa;stroke:none"
       d="m 330.9375,253.8125 c -48.05737,0 -96.1316,24.66605 -108.09375,74 l -2.8125,0 c 0,4.21772 0.21365,8.30311 0.65625,12.25 -0.44463,3.95542 -0.65625,8.05374 -0.65625,12.28125 l 2.8125,0 c 23.93715,98.64684 192.2191,98.64684 216.15625,0 l 2.84375,0 c 0,-4.22751 -0.24287,-8.32583 -0.6875,-12.28125 0.4426,-3.94689 0.6875,-8.03228 0.6875,-12.25 l -2.84375,0 c -11.96215,-49.33395 -60.00513,-74 -108.0625,-74 z"
       id="path2987"
       inkscape:connector-curvature="0" />
    <path
       style="fill:#ffeeaa;fill-opacity:1;stroke:none"
       d="m 250.18721,292.00748 -55.77903,31.36429 46.82181,60.63761 z"
       id="path2991"
       inkscape:connector-curvature="0"
       sodipodi:nodetypes="cccc" />
    <path
       sodipodi:nodetypes="cccc"
       inkscape:connector-curvature="0"
       id="path2993"
       d="m 410.97961,292.00748 55.77903,31.36429 -46.82181,60.63761 z"
       style="fill:#ffeeaa;fill-opacity:1;stroke:none" />
    <path
       sodipodi:nodetypes="cccc"
       inkscape:connector-curvature="0"
       id="path2995"
       d="m 418.29864,289.89794 -31.36429,-65.77902 -60.63761,55.21596 z"
       style="fill:#ffeeaa;fill-opacity:1;stroke:none" />
    <path
       style="fill:#ffeeaa;fill-opacity:1;stroke:none"
       d="m 246.29674,289.89794 31.36429,-65.77902 60.63761,55.21596 z"
       id="path2997"
       inkscape:connector-curvature="0"
       sodipodi:nodetypes="cccc" />
  </g>
  <g
     inkscape:groupmode="layer"
     id="layer3"
     inkscape:label="Cara 1"
     style="display:none"
     sodipodi:insensitive="true">
    <path
       transform="matrix(-0.80887043,0.24334676,0.45320897,1.7284468,478.37448,-613.86679)"
       inkscape:transform-center-x="-7.2437495"
       d="m 301.42858,473.07648 a 43.57143,15 0 1 1 -87.14286,0 43.57143,15 0 1 1 87.14286,0 z"
       sodipodi:ry="15"
       sodipodi:rx="43.57143"
       sodipodi:cy="473.07648"
       sodipodi:cx="257.85715"
       id="path4070"
       style="fill:#ffeeaa;fill-opacity:1;stroke:none"
       sodipodi:type="arc"
       inkscape:transform-center-y="1.5500017" />
    <path
       style="fill:#ffeeaa;fill-opacity:1;stroke:none"
       d="m 481.91878,246.80634 c -50.05105,3.45361 -40.01292,47.9348 -46.77593,168.12727 -1.55974,27.71979 -40.54806,35.69092 -82.28571,98.85714 22.68576,-31.49989 6.3556,24.47368 16.80479,5.15687 23.30633,-15.0311 87.10631,-71.35258 91.19521,-122.58543 4.26769,-53.47308 14.70487,-123.61445 45.27557,-112.88217 z"
       id="path4072"
       inkscape:connector-curvature="0"
       sodipodi:nodetypes="csccscc" />
    <path
       sodipodi:type="arc"
       style="fill:#ffeeaa;fill-opacity:1;stroke:none"
       id="path4062"
       sodipodi:cx="257.85715"
       sodipodi:cy="473.07648"
       sodipodi:rx="43.57143"
       sodipodi:ry="15"
       d="m 301.42858,473.07648 a 43.57143,15 0 1 1 -87.14286,0 43.57143,15 0 1 1 87.14286,0 z"
       inkscape:transform-center-x="24.762735"
       transform="matrix(0.86669594,-0.5706955,0.30684104,0.95176078,-105.54861,186.28434)"
       inkscape:transform-center-y="16.305586" />
    <path
       inkscape:connector-curvature="0"
       id="path4044"
       d="m 417.41668,326.69521 -77.32271,10.10153 31.41234,28.28427 z"
       style="fill:#ffffff;stroke:#d40000;stroke-width:3.28088737;stroke-linecap:butt;stroke-linejoin:miter;stroke-miterlimit:4;stroke-opacity:1;stroke-dasharray:none" />
    <path
       style="fill:none;stroke:#d40000;stroke-width:3.16230559;stroke-linecap:butt;stroke-linejoin:miter;stroke-miterlimit:4;stroke-opacity:1;stroke-dasharray:none"
       d="m 314.32111,343.79075 c 7.05981,-7.29218 27.77441,-7.37703 33.2927,0"
       id="path4046"
       inkscape:connector-curvature="0"
       sodipodi:nodetypes="cc" />
    <path
       style="fill:#d40000;fill-opacity:1;stroke:#d40000;stroke-width:3;stroke-linecap:butt;stroke-linejoin:miter;stroke-miterlimit:4;stroke-opacity:1;stroke-dasharray:none"
       d="M 245.54098,325.45391 242.9079,287.66856"
       id="path4048"
       inkscape:connector-curvature="0"
       sodipodi:nodetypes="cc" />
    <path
       style="fill:#ffffff;stroke:#d40000;stroke-width:3.28088737;stroke-linecap:butt;stroke-linejoin:miter;stroke-miterlimit:4;stroke-opacity:1;stroke-dasharray:none"
       d="m 244.34651,326.69521 77.32271,10.10153 -31.41234,28.28427 z"
       id="path4052"
       inkscape:connector-curvature="0" />
    <path
       sodipodi:nodetypes="cc"
       inkscape:connector-curvature="0"
       id="path4054"
       d="m 414.29585,325.39298 2.63308,-37.78535"
       style="fill:#d40000;fill-opacity:1;stroke:#d40000;stroke-width:3;stroke-linecap:butt;stroke-linejoin:miter;stroke-miterlimit:4;stroke-opacity:1;stroke-dasharray:none"
       inkscape:transform-center-x="61.347822"
       inkscape:transform-center-y="35.480872" />
    <path
       style="fill:#333333;stroke:none"
       d="m 320.57108,366.08836 c 7.10237,-5.31519 14.20473,-5.4804 21.3071,0 0,0 -5.63142,12.27382 -10.65355,12.27382 -5.02213,0 -10.65355,-12.27382 -10.65355,-12.27382 z"
       id="path4056"
       inkscape:connector-curvature="0"
       sodipodi:nodetypes="ccsc" />
    <path
       inkscape:transform-center-y="16.305586"
       transform="matrix(-0.86669594,-0.5706955,-0.30684104,0.95176078,761.04431,186.28434)"
       inkscape:transform-center-x="-24.76274"
       d="m 301.42858,473.07648 a 43.57143,15 0 1 1 -87.14286,0 43.57143,15 0 1 1 87.14286,0 z"
       sodipodi:ry="15"
       sodipodi:rx="43.57143"
       sodipodi:cy="473.07648"
       sodipodi:cx="257.85715"
       id="path4066"
       style="fill:#ffeeaa;fill-opacity:1;stroke:none"
       sodipodi:type="arc" />
    <path
       style="fill:#ffffff;stroke:#000000;stroke-width:1px;stroke-linecap:butt;stroke-linejoin:miter;stroke-opacity:1"
       d="M 268.94568,547.48896 C 254.69311,503.15268 244.99938,485.23736 200,452.36218 c 60,0 86.90016,5.21915 130,25.71429 36.53922,-13.88155 76.42742,-26.31136 130,-25.71429 -45.53766,31.65144 -64.02719,57.51594 -66.85632,94.16739 z"
       id="path4060"
       inkscape:connector-curvature="0"
       sodipodi:nodetypes="cccccc" />
    <path
       inkscape:transform-center-y="0.62768656"
       transform="matrix(0.53096963,0.07828652,-0.26400766,0.92174174,236.09738,62.446422)"
       inkscape:transform-center-x="-24.728792"
       d="m 301.42858,473.07648 a 43.57143,15 0 1 1 -87.14286,0 43.57143,15 0 1 1 87.14286,0 z"
       sodipodi:ry="15"
       sodipodi:rx="43.57143"
       sodipodi:cy="473.07648"
       sodipodi:cx="257.85715"
       id="path4064"
       style="fill:#ffeeaa;fill-opacity:1;stroke:none"
       sodipodi:type="arc" />
    <path
       sodipodi:type="arc"
       style="fill:#ffeeaa;fill-opacity:1;stroke:none"
       id="path4068"
       sodipodi:cx="257.85715"
       sodipodi:cy="473.07648"
       sodipodi:rx="43.57143"
       sodipodi:ry="15"
       d="m 301.42858,473.07648 a 43.57143,15 0 1 1 -87.14286,0 43.57143,15 0 1 1 87.14286,0 z"
       inkscape:transform-center-x="24.728787"
       transform="matrix(-0.53096963,0.07828652,0.26400766,0.92174174,419.39832,62.446422)"
       inkscape:transform-center-y="0.62768656" />
  </g>
  <g
     inkscape:groupmode="layer"
     id="g4167"
     inkscape:label="Cola copia"
     sodipodi:insensitive="true"
     style="display:none">
    <path
       style="fill:#ffeeaa;fill-opacity:1;stroke:#000000;stroke-width:3;stroke-miterlimit:4;stroke-dasharray:none"
       d="m 489.9375,238.5625 c -4.04544,0.119 -8.27338,0.81278 -12.53125,2.09375 -13.46633,4.05131 -23.70755,13.11152 -27.5,23.0625 -13.34424,22.55966 -10.14057,69.29974 -14.75,151.21875 -1.55974,27.71979 -40.57485,35.67753 -82.3125,98.84375 22.68576,-31.49989 6.36331,24.47306 16.8125,5.15625 23.30633,-15.0311 87.0986,-71.32965 91.1875,-122.5625 2.92965,-36.70775 8.76965,-81.2932 22.03125,-102.15625 2.66679,-0.33542 5.39303,-0.89684 8.125,-1.71875 19.46453,-5.85586 32.19201,-22.21233 28.4375,-36.53125 -2.93321,-11.18666 -15.05202,-17.83124 -29.5,-17.40625 z"
       id="path4169"
       inkscape:connector-curvature="0" />
    <path
       id="path4173"
       d="m 293,460.71875 c -7.95172,0.24031 -20.81323,5.36264 -34.5,14.375 -20.85603,13.73312 -35.6982,31.27161 -33.15625,39.15625 -0.13945,0.33415 -0.27568,0.68451 -0.375,1.03125 -2.18711,7.63596 6.41033,15.33488 19.1875,17.21875 12.77717,1.88387 24.90664,-2.77029 27.09375,-10.40625 1.59633,-5.57333 -2.55266,-11.17105 -9.875,-14.53125 2.08146,-1.21431 4.17577,-2.49927 6.3125,-3.90625 20.85603,-13.73312 35.6982,-31.24036 33.15625,-39.125 -0.8738,-2.71035 -3.67856,-3.93838 -7.84375,-3.8125 z"
       style="fill:#ffeeaa;fill-opacity:1;stroke:#000000;stroke-width:3;stroke-miterlimit:4;stroke-dasharray:none"
       inkscape:connector-curvature="0" />
    <path
       inkscape:connector-curvature="0"
       id="path4175"
       d="m 417.41668,326.69521 -77.32271,10.10153 31.41234,28.28427 z"
       style="fill:#ffffff;stroke:#d40000;stroke-width:3.28088737;stroke-linecap:butt;stroke-linejoin:miter;stroke-miterlimit:4;stroke-opacity:1;stroke-dasharray:none" />
    <path
       style="fill:none;stroke:#d40000;stroke-width:3.16230559;stroke-linecap:butt;stroke-linejoin:miter;stroke-miterlimit:4;stroke-opacity:1;stroke-dasharray:none"
       d="m 314.32111,343.79075 c 7.05981,-7.29218 27.77441,-7.37703 33.2927,0"
       id="path4177"
       inkscape:connector-curvature="0"
       sodipodi:nodetypes="cc" />
    <path
       style="fill:#d40000;fill-opacity:1;stroke:#d40000;stroke-width:3;stroke-linecap:butt;stroke-linejoin:miter;stroke-miterlimit:4;stroke-opacity:1;stroke-dasharray:none"
       d="M 245.54098,325.45391 242.9079,287.66856"
       id="path4179"
       inkscape:connector-curvature="0"
       sodipodi:nodetypes="cc" />
    <path
       style="fill:#ffffff;stroke:#d40000;stroke-width:3.28088737;stroke-linecap:butt;stroke-linejoin:miter;stroke-miterlimit:4;stroke-opacity:1;stroke-dasharray:none"
       d="m 244.34651,326.69521 77.32271,10.10153 -31.41234,28.28427 z"
       id="path4181"
       inkscape:connector-curvature="0" />
    <path
       sodipodi:nodetypes="cc"
       inkscape:connector-curvature="0"
       id="path4183"
       d="m 414.29585,325.39298 2.63308,-37.78535"
       style="fill:#d40000;fill-opacity:1;stroke:#d40000;stroke-width:3;stroke-linecap:butt;stroke-linejoin:miter;stroke-miterlimit:4;stroke-opacity:1;stroke-dasharray:none"
       inkscape:transform-center-x="61.347822"
       inkscape:transform-center-y="35.480872" />
    <path
       style="fill:#333333;stroke:none"
       d="m 320.57108,366.08836 c 7.10237,-5.31519 14.20473,-5.4804 21.3071,0 0,0 -5.63142,12.27382 -10.65355,12.27382 -5.02213,0 -10.65355,-12.27382 -10.65355,-12.27382 z"
       id="path4185"
       inkscape:connector-curvature="0"
       sodipodi:nodetypes="ccsc" />
    <path
       id="path4187"
       d="m 361.375,460.71875 c -3.55888,0.10887 -5.95564,1.34855 -6.75,3.8125 -2.54195,7.88464 12.33147,25.39188 33.1875,39.125 2.13673,1.40698 4.23104,2.69194 6.3125,3.90625 -7.32234,3.3602 -11.47133,8.95792 -9.875,14.53125 2.18711,7.63596 14.31658,12.29012 27.09375,10.40625 12.77717,-1.88387 21.34336,-9.58279 19.15625,-17.21875 -0.0993,-0.34674 -0.2043,-0.6971 -0.34375,-1.03125 2.54195,-7.88464 -12.30022,-25.42313 -33.15625,-39.15625 -14.33852,-9.44152 -27.79546,-14.61452 -35.625,-14.375 z"
       style="fill:#ffeeaa;fill-opacity:1;stroke:#000000;stroke-width:3;stroke-miterlimit:4;stroke-dasharray:none"
       inkscape:connector-curvature="0" />
    <path
       style="fill:#ffffff;stroke:#000000;stroke-width:3;stroke-linecap:butt;stroke-linejoin:miter;stroke-miterlimit:4;stroke-opacity:1;stroke-dasharray:none"
       d="M 268.94568,547.48896 C 254.69311,503.15268 244.99938,485.23736 200,452.36218 c 60,0 86.90016,5.21915 130,25.71429 36.53922,-13.88155 76.42742,-26.31136 130,-25.71429 -45.53766,31.65144 -64.02719,57.51594 -66.85632,94.16739 z"
       id="path4189"
       inkscape:connector-curvature="0"
       sodipodi:nodetypes="cccccc" />
  </g>
  <g
     inkscape:label="Cuerpo 1 copia"
     id="g4129"
     inkscape:groupmode="layer"
     style="display:inline"
     sodipodi:insensitive="true">
    <path
       style="fill:#ffeeaa;fill-opacity:1;stroke:#000000;stroke-width:0.81446642;stroke-miterlimit:4;stroke-dasharray:none"
       d="m 323.18766,413.57506 c -1.87123,19.97979 -6.16135,21.89555 -14.23619,34.34333 l 0.39026,-0.017 c -1.13655,2.42646 -1.76468,5.10891 -1.76468,7.92407 0,10.97132 9.5717,19.86111 21.37974,19.86111 11.80806,0 21.37975,-8.88979 21.37975,-19.86111 0,-3.31908 -0.87743,-6.44656 -2.42643,-9.19667 l 0.33087,-0.008 c -7.11318,-12.00331 -14.04276,-14.32621 -11.11407,-33.04528 l -13.93925,0 z"
       id="path4131"
       inkscape:connector-curvature="0" />
    <path
       style="fill:url(#linearGradient4284);fill-opacity:1;stroke:none"
       d="m 322.23745,421.08342 c -0.51013,3.03921 -1.12579,5.54138 -1.84952,7.71198 l 4.97164,3.41058 1.08595,-10.31658 -4.20807,-0.80598 z"
       id="path4250"
       inkscape:connector-curvature="0" />
  </g>
  <g
     style="display:inline"
     id="g4076"
     inkscape:groupmode="layer"
     inkscape:label="Cabeza 1 unida"
     sodipodi:insensitive="true">
    <path
       style="fill:#ffeeaa;stroke:#000000;stroke-width:0.81446642;stroke-miterlimit:4;stroke-dasharray:none"
       d="m 314.94967,367.52377 -7.56775,15.87361 c -1.61634,1.46105 -3.04381,3.12611 -4.23353,4.9971 l -10.80016,6.07456 8.93368,11.56372 c 9.19906,22.01155 47.70386,21.84273 56.46118,-0.50056 l 8.54341,-11.06316 -10.5117,-5.91337 c -0.85726,-1.37295 -1.8423,-2.63742 -2.93548,-3.79236 l -8.22102,-17.23954 -9.34939,8.51796 c -1.93031,-0.30345 -3.8901,-0.45813 -5.85397,-0.45813 -1.74577,0 -3.48677,0.12502 -5.2092,0.36481 l -9.25607,-8.42464 z"
       id="path4078"
       inkscape:connector-curvature="0" />
    <path
       style="fill:#aa0000;stroke:#000000;stroke-width:0.76749688;stroke-linecap:butt;stroke-linejoin:miter;stroke-miterlimit:4;stroke-opacity:1;stroke-dasharray:none"
       d="m 315.56148,371.35594 -4.43709,9.46754 9.9182,-4.222 z"
       id="path4192"
       inkscape:connector-curvature="0" />
    <path
       inkscape:connector-curvature="0"
       id="path4194"
       d="m 343.89702,371.35594 4.43709,9.46754 -9.9182,-4.222 z"
       style="fill:#aa0000;stroke:#000000;stroke-width:0.76749688;stroke-linecap:butt;stroke-linejoin:miter;stroke-miterlimit:4;stroke-opacity:1;stroke-dasharray:none" />
    <path
       style="fill:none;stroke:#000000;stroke-width:0.81446642;stroke-linecap:butt;stroke-linejoin:miter;stroke-miterlimit:4;stroke-opacity:1;stroke-dasharray:none"
       d="m 329.16041,411.25908 0,2.71488"
       id="path4196"
       inkscape:connector-curvature="0"
       sodipodi:nodetypes="cc" />
    <path
       style="fill:none;stroke:#000000;stroke-width:0.81446642;stroke-linecap:butt;stroke-linejoin:miter;stroke-miterlimit:4;stroke-opacity:1;stroke-dasharray:none"
       d="m 326.05769,415.13749 3.29664,-1.35745"
       id="path4198"
       inkscape:connector-curvature="0"
       sodipodi:nodetypes="cc" />
    <path
       sodipodi:nodetypes="cc"
       inkscape:connector-curvature="0"
       id="path4200"
       d="m 332.06922,415.13749 -3.29665,-1.35745"
       style="fill:none;stroke:#000000;stroke-width:0.81446642;stroke-linecap:butt;stroke-linejoin:miter;stroke-miterlimit:4;stroke-opacity:1;stroke-dasharray:none" />
    <path
       style="fill:url(#linearGradient4246);fill-opacity:1;stroke:none"
       d="m 301.6043,389.25984 -9.25607,5.2092 8.93368,11.56372 c 3.28507,7.86053 10.30612,12.88948 18.37639,15.09309 -7.6505,-8.5821 -13.2551,-19.71942 -18.054,-31.86601 z"
       id="path4237"
       inkscape:connector-curvature="0" />
  </g>
  <g
     inkscape:label="Cara 1 copia"
     id="g4135"
     inkscape:groupmode="layer"
     style="display:inline"
     sodipodi:insensitive="true">
    <path
       style="fill:#ffeeaa;fill-opacity:1;stroke:#000000;stroke-width:0.81446642;stroke-miterlimit:4;stroke-dasharray:none"
       d="m 319.11532,431.75633 c -2.1588,0.0653 -5.65055,1.45589 -9.36636,3.90265 -5.66218,3.72839 -9.69166,8.48989 -9.00155,10.63048 -0.0379,0.0907 -0.0748,0.18584 -0.10181,0.27997 -0.59377,2.07308 1.74034,4.16326 5.20919,4.67471 3.46887,0.51144 6.76188,-0.75211 7.35565,-2.82518 0.43339,-1.5131 -0.69301,-3.03283 -2.68094,-3.94508 0.56509,-0.32967 1.13367,-0.67852 1.71376,-1.0605 5.66219,-3.72839 9.69167,-8.48141 9.00156,-10.622 -0.23723,-0.73583 -0.99869,-1.06923 -2.1295,-1.03505 z"
       id="path4141"
       inkscape:connector-curvature="0" />
    <path
       style="fill:#ffffff;stroke:#d40000;stroke-width:0.89072424;stroke-linecap:butt;stroke-linejoin:miter;stroke-miterlimit:4;stroke-opacity:1;stroke-dasharray:none"
       d="m 352.89307,395.37044 -20.99226,2.74245 8.5281,7.67886 z"
       id="path4143"
       inkscape:connector-curvature="0" />
    <path
       sodipodi:nodetypes="cc"
       inkscape:connector-curvature="0"
       id="path4145"
       d="m 324.90377,400.01168 c 1.91666,-1.97974 7.54044,-2.00278 9.03859,0"
       style="fill:none;stroke:#d40000;stroke-width:0.85853064;stroke-linecap:butt;stroke-linejoin:miter;stroke-miterlimit:4;stroke-opacity:1;stroke-dasharray:none" />
    <path
       sodipodi:nodetypes="cc"
       inkscape:connector-curvature="0"
       id="path4147"
       d="m 306.23073,395.03344 -0.71485,-10.25831"
       style="fill:#d40000;fill-opacity:1;stroke:#d40000;stroke-width:0.81446642;stroke-linecap:butt;stroke-linejoin:miter;stroke-miterlimit:4;stroke-opacity:1;stroke-dasharray:none" />
    <path
       inkscape:connector-curvature="0"
       id="path4149"
       d="m 305.90644,395.37044 20.99226,2.74245 -8.5281,7.67886 z"
       style="fill:#ffffff;stroke:#d40000;stroke-width:0.89072424;stroke-linecap:butt;stroke-linejoin:miter;stroke-miterlimit:4;stroke-opacity:1;stroke-dasharray:none" />
    <path
       inkscape:transform-center-y="9.6326659"
       inkscape:transform-center-x="16.655251"
       style="fill:#d40000;fill-opacity:1;stroke:#d40000;stroke-width:0.81446642;stroke-linecap:butt;stroke-linejoin:miter;stroke-miterlimit:4;stroke-opacity:1;stroke-dasharray:none"
       d="m 352.04579,395.0169 0.71485,-10.2583"
       id="path4151"
       inkscape:connector-curvature="0"
       sodipodi:nodetypes="cc" />
    <path
       sodipodi:nodetypes="ccsc"
       inkscape:connector-curvature="0"
       id="path4153"
       d="m 326.60057,406.06524 c 1.92821,-1.44302 3.85642,-1.48788 5.78464,0 0,0 -1.52888,3.3322 -2.89232,3.3322 -1.36346,0 -2.89232,-3.3322 -2.89232,-3.3322 z"
       style="fill:#333333;stroke:none" />
    <path
       style="fill:#ffeeaa;fill-opacity:1;stroke:#000000;stroke-width:0.81446642;stroke-miterlimit:4;stroke-dasharray:none"
       d="m 337.67837,431.75633 c -0.96619,0.0295 -1.61689,0.36611 -1.83254,1.03505 -0.69012,2.14059 3.34785,6.89361 9.01003,10.622 0.5801,0.38198 1.14868,0.73083 1.71377,1.0605 -1.98793,0.91225 -3.11433,2.43198 -2.68095,3.94508 0.59378,2.07307 3.88679,3.33662 7.35565,2.82518 3.46886,-0.51145 5.79448,-2.60163 5.20071,-4.67471 -0.0269,-0.0941 -0.0555,-0.18925 -0.0933,-0.27997 0.69012,-2.14059 -3.33937,-6.90209 -9.00155,-10.63048 -3.89275,-2.56327 -7.54616,-3.96768 -9.67179,-3.90265 z"
       id="path4155"
       inkscape:connector-curvature="0" />
    <path
       sodipodi:nodetypes="cccccc"
       inkscape:connector-curvature="0"
       id="path4157"
       d="m 311.49889,450.96965 c -3.86941,-12.03681 -6.50115,-16.90061 -18.71798,-25.82586 16.28933,0 23.59242,1.41694 35.29355,6.98114 9.91999,-3.76868 20.74919,-7.14324 35.29354,-6.98114 -12.36296,8.59301 -17.38267,15.61493 -18.15074,25.56539 z"
       style="fill:#ffffff;stroke:#000000;stroke-width:0.81446642;stroke-linecap:butt;stroke-linejoin:miter;stroke-miterlimit:4;stroke-opacity:1;stroke-dasharray:none" />
    <path
       sodipodi:type="arc"
       style="fill:#ffeeaa;fill-opacity:1;stroke:#000000;stroke-width:3;stroke-miterlimit:4;stroke-opacity:1;stroke-dasharray:none"
       id="path4231"
       sodipodi:cx="245.0125"
       sodipodi:cy="521.32501"
       sodipodi:rx="22.98097"
       sodipodi:ry="12.727922"
       d="m 267.99347,521.32501 a 22.98097,12.727922 0 1 1 -45.96194,0 22.98097,12.727922 0 1 1 45.96194,0 z"
       transform="matrix(0.27148881,0.01776454,0,0.30751597,240.33699,282.69945)" />
    <path
       transform="matrix(-0.27148881,0.01776454,0,0.30751597,416.8115,282.69945)"
       d="m 267.99347,521.32501 a 22.98097,12.727922 0 1 1 -45.96194,0 22.98097,12.727922 0 1 1 45.96194,0 z"
       sodipodi:ry="12.727922"
       sodipodi:rx="22.98097"
       sodipodi:cy="521.32501"
       sodipodi:cx="245.0125"
       id="path4233"
       style="fill:#ffeeaa;fill-opacity:1;stroke:#000000;stroke-width:3;stroke-miterlimit:4;stroke-opacity:1;stroke-dasharray:none"
       sodipodi:type="arc" />
    <path
       style="fill:none;stroke:#000000;stroke-width:0.26271772px;stroke-linecap:butt;stroke-linejoin:miter;stroke-opacity:1"
       d="m 338.39103,400.94047 3.52936,-2.16096"
       id="path4290"
       inkscape:connector-curvature="0" />
    <path
       style="fill:none;stroke:#000000;stroke-width:0.26271772px;stroke-linecap:butt;stroke-linejoin:miter;stroke-opacity:1"
       d="m 339.47699,401.83027 6.10849,-3.68633"
       id="path4292"
       inkscape:connector-curvature="0" />
    <path
       inkscape:connector-curvature="0"
       id="path4298"
       d="m 316.12895,401.44892 3.52935,-2.16095"
       style="fill:none;stroke:#000000;stroke-width:0.26271772px;stroke-linecap:butt;stroke-linejoin:miter;stroke-opacity:1" />
    <path
       inkscape:connector-curvature="0"
       id="path4300"
       d="m 317.21491,402.33873 6.10849,-3.68633"
       style="fill:none;stroke:#000000;stroke-width:0.26271772px;stroke-linecap:butt;stroke-linejoin:miter;stroke-opacity:1" />
  </g>
</svg>
